<svg width="15" height="15" viewBox="0 0 15 15" fill="none" xmlns="http://www.w3.org/2000/svg">
<g id="Frame" clip-path="url(#clip0_4_86)">
<path id="Vector" d="M10.6306 4.8382H9.84544C9.67468 4.8382 9.51229 4.92023 9.41184 5.06085L6.78015 8.71041L5.58818 7.05639C5.48773 6.91744 5.32702 6.83373 5.15459 6.83373H4.36943C4.26061 6.83373 4.197 6.95762 4.26061 7.04634L6.34655 9.9392C6.39583 10.008 6.46079 10.064 6.53605 10.1027C6.61131 10.1413 6.6947 10.1615 6.77931 10.1615C6.86392 10.1615 6.94731 10.1413 7.02257 10.1027C7.09783 10.064 7.16279 10.008 7.21206 9.9392L10.7377 5.05081C10.803 4.96208 10.7394 4.8382 10.6306 4.8382Z" fill="#222222"/>
<path id="Vector_2" d="M7.5 0C3.35826 0 0 3.35826 0 7.5C0 11.6417 3.35826 15 7.5 15C11.6417 15 15 11.6417 15 7.5C15 3.35826 11.6417 0 7.5 0ZM7.5 13.7277C4.06138 13.7277 1.27232 10.9386 1.27232 7.5C1.27232 4.06138 4.06138 1.27232 7.5 1.27232C10.9386 1.27232 13.7277 4.06138 13.7277 7.5C13.7277 10.9386 10.9386 13.7277 7.5 13.7277Z" fill="#222222"/>
</g>
<defs>
<clipPath id="clip0_4_86">
<rect width="15" height="15" fill="white"/>
</clipPath>
</defs>
</svg>
